<svg xmlns="http://www.w3.org/2000/svg" width="388" height="388" viewBox="0 0 388 388" version="1.1"><path d="M 95.500 171.935 C 88.306 173.686, 82.211 178.888, 79.348 185.718 C 77.542 190.029, 77.640 199.197, 79.542 203.782 C 81.388 208.231, 176.222 303.781, 182.500 307.516 C 187.829 310.688, 193.676 311.508, 200.180 309.998 C 205.418 308.781, 206.279 307.986, 255.825 258.631 C 283.503 231.059, 306.955 206.925, 307.939 205 C 310.582 199.834, 311.179 194.934, 309.896 188.950 C 308.965 184.609, 307.799 182.668, 303.594 178.463 C 297.079 171.948, 291.280 170.191, 282.314 172.014 L 276.500 173.197 235.973 213.598 C 213.683 235.819, 195.025 254, 194.511 254 C 193.998 254, 175.560 236.045, 153.539 214.100 C 115.360 176.053, 113.248 174.125, 108.068 172.600 C 102.264 170.890, 100.233 170.783, 95.500 171.935" stroke="none" fill="#ffffff" fill-rule="evenodd"/><path d="M 185.625 71.469 C 180.712 73.220, 175.292 78.345, 172.900 83.500 C 171.147 87.278, 171.043 91.493, 171.022 159.516 L 171 231.533 182.266 242.766 C 188.462 248.945, 193.976 254, 194.520 254 C 195.064 254, 213.057 236.338, 234.505 214.751 C 255.952 193.164, 260.788 188.098, 245.250 203.494 L 217 231.487 216.978 159.493 C 216.953 78.396, 217.397 83.182, 209.227 75.817 C 202.946 70.153, 193.959 68.498, 185.625 71.469 M 301 175.313 C 301 175.485, 302.462 176.948, 304.250 178.563 L 307.500 181.500 304.563 178.250 C 301.825 175.221, 301 174.540, 301 175.313 M 77.252 194.500 C 77.263 196.700, 77.468 197.482, 77.707 196.238 C 77.946 194.994, 77.937 193.194, 77.687 192.238 C 77.437 191.282, 77.241 192.300, 77.252 194.500 M 256.996 257.750 L 208.500 306.500 257.250 258.004 C 302.563 212.927, 306.449 209, 305.746 209 C 305.607 209, 283.669 230.938, 256.996 257.750" stroke="none" fill="#6486e2" fill-rule="evenodd"/><path d="M 166.301 1.556 C 80.629 14.051, 13.712 81.286, 1.511 167.130 C -0.387 180.480, -0.387 207.520, 1.511 220.870 C 13.770 307.121, 80.879 374.230, 167.130 386.489 C 180.480 388.387, 207.520 388.387, 220.870 386.489 C 294.145 376.074, 354.825 325.719, 378.054 256.049 C 382.458 242.841, 385.582 229.542, 386.588 219.722 C 386.969 215.994, 387.669 212.705, 388.141 212.413 C 388.613 212.121, 389 203.332, 389 192.882 C 389 182.432, 388.611 174.122, 388.136 174.416 C 387.660 174.710, 386.961 171.924, 386.582 168.225 C 385.581 158.455, 382.450 145.136, 378.054 131.951 C 354.825 62.281, 294.145 11.926, 220.870 1.511 C 208.030 -0.314, 178.962 -0.290, 166.301 1.556 M 185.625 71.469 C 180.712 73.220, 175.292 78.345, 172.900 83.500 C 171.147 87.278, 171.043 91.492, 171.022 159.462 L 171 231.424 141.750 202.388 C 110.357 171.224, 110.019 170.971, 99.884 171.022 C 83.324 171.105, 72.210 189.970, 79.959 204.842 C 82.838 210.367, 180.635 307.573, 185.218 309.465 C 190.403 311.606, 198.574 311.373, 204 308.930 C 210.493 306.006, 304.973 211.663, 308.527 204.554 C 312.868 195.872, 310.784 183.650, 303.882 177.312 C 300.007 173.753, 292.927 171.044, 287.500 171.044 C 278.176 171.044, 275.623 172.992, 245.250 203.281 L 217 231.453 216.978 159.477 C 216.953 78.398, 217.397 83.182, 209.227 75.817 C 202.946 70.153, 193.959 68.498, 185.625 71.469 M 0.419 194 C 0.419 204.725, 0.566 209.113, 0.746 203.750 C 0.925 198.387, 0.925 189.613, 0.746 184.250 C 0.566 178.887, 0.419 183.275, 0.419 194" stroke="none" fill="#272930" fill-rule="evenodd"/></svg>