<svg xmlns="http://www.w3.org/2000/svg" width="1920" height="203" viewBox="0 0 1920 203" version="1.1"><path d="" stroke="none" fill="#6884e4" fill-rule="evenodd"/><path d="M -0 100.607 C -0 180.706, 0.255 201.107, 1.250 200.688 C 33.549 187.094, 117.097 157.344, 174 139.174 C 403.519 65.886, 631.155 20.898, 835 8.540 C 912.570 3.837, 997.427 4.003, 1071 9.001 C 1207.781 18.292, 1343.072 39.052, 1494.500 73.983 C 1629.149 105.044, 1789.293 153.207, 1903.391 196.958 C 1912.131 200.309, 1919.556 202.777, 1919.891 202.442 C 1920.226 202.108, 1920.619 156.421, 1920.764 100.917 L 1921.028 0 960.514 0 L 0 0 -0 100.607 M 0.481 101 C 0.481 156.275, 0.602 178.887, 0.750 151.250 C 0.898 123.612, 0.898 78.387, 0.750 50.750 C 0.602 23.112, 0.481 45.725, 0.481 101" stroke="none" fill="#6484e4" fill-rule="evenodd"/></svg>