<svg xmlns="http://www.w3.org/2000/svg" width="1911" height="264" viewBox="0 0 1911 264" version="1.1"><path d="M 597.500 35.460 C 593.650 36.145, 583.975 37.724, 576 38.969 C 568.025 40.215, 561.050 41.682, 560.500 42.230 C 559.836 42.891, 560.171 43.033, 561.500 42.654 C 562.600 42.340, 573.175 40.518, 585 38.605 C 613.925 33.926, 612.075 34.277, 608 34.244 C 606.075 34.229, 601.350 34.776, 597.500 35.460 M 341.423 92.471 C 206.463 126.494, 102.503 166.578, 16.256 217.844 L 0.011 227.500 0.006 245.690 L 0 263.880 16.750 251.291 C 99.934 188.770, 213.987 134.328, 346.500 93.889 C 374.984 85.197, 375.092 85.160, 372.500 85.150 C 371.400 85.145, 357.415 88.440, 341.423 92.471 M 1532.083 85.365 C 1532.313 85.565, 1539.700 87.850, 1548.500 90.442 C 1683.951 130.335, 1804.806 187.634, 1891.814 253.212 C 1900.990 260.128, 1907.011 264, 1908.588 264 L 1911.048 264 1910.774 247.268 L 1910.500 230.535 1901.129 224.659 C 1815.985 171.274, 1694.730 124.087, 1556.186 90.422 C 1535.331 85.355, 1531.044 84.455, 1532.083 85.365" stroke="none" fill="#000000" fill-rule="evenodd"/><path d="M 445 65.202 C 441.425 65.723, 424.550 68.117, 407.500 70.523 C 382.009 74.119, 360.291 77.529, 317.500 84.651 C 287.712 89.609, 228.842 101.719, 191.500 110.571 C 122.689 126.883, 50.501 149.513, 3.750 169.429 L 0 171.027 0 199.072 C 0 221.243, 0.262 226.961, 1.250 226.367 C 1.938 225.954, 7 222.850, 12.500 219.469 C 49.594 196.669, 100.059 172.159, 152.500 151.474 C 219.619 124.999, 300.544 100.617, 379.978 82.937 C 391.759 80.315, 407.170 76.502, 446 66.604 C 456.023 64.049, 455.730 63.638, 445 65.202 M 1460 66.601 C 1498.648 76.442, 1515.351 80.542, 1535 85.012 C 1589.963 97.515, 1655.428 116.089, 1702.500 132.535 C 1784.256 161.098, 1844.330 189.072, 1907.188 227.852 L 1911 230.203 1911 201.695 L 1911 173.188 1900.084 168.580 C 1812.323 131.536, 1679.520 97.978, 1530 75.062 C 1509.609 71.937, 1452.021 63.934, 1451.057 64.091 C 1450.751 64.141, 1454.775 65.271, 1460 66.601" stroke="none" fill="#fafbfb" fill-rule="evenodd"/><path d="M 932.495 7.907 C 913.242 8.277, 896.963 8.905, 896.319 9.303 C 895.675 9.701, 883.077 10.487, 868.324 11.051 C 829.400 12.537, 790.966 14.699, 763.160 16.966 C 666.187 24.871, 563.848 39.999, 478.673 59.019 C 468.868 61.209, 459.782 63, 458.482 63 C 457.182 63, 455.815 63.490, 455.444 64.090 C 455.055 64.720, 453.239 64.961, 451.135 64.662 C 449.136 64.377, 448.400 64.398, 449.500 64.709 C 451.400 65.247, 413.542 75.391, 392 80.117 C 386.775 81.264, 381.995 82.614, 381.377 83.118 C 380.759 83.622, 379.448 83.725, 378.463 83.347 C 377.142 82.840, 376.885 83.005, 377.485 83.976 C 378.114 84.994, 377.680 85.137, 375.565 84.606 C 374.062 84.229, 373.068 84.301, 373.356 84.766 C 373.643 85.232, 367.944 87.344, 360.689 89.459 C 339.432 95.659, 284.194 114.126, 262 122.453 C 164.645 158.983, 81.629 202.577, 17 251.109 L 0.500 263.500 476.750 263.751 C 738.688 263.889, 1167.313 263.889, 1429.250 263.751 L 1905.500 263.500 1890 251.898 C 1827.865 205.391, 1755.240 166.211, 1665 130.514 C 1631.727 117.351, 1580.833 99.870, 1546.809 89.916 C 1538.729 87.552, 1532.354 85.236, 1532.643 84.769 C 1532.931 84.302, 1531.938 84.229, 1530.435 84.606 C 1528.381 85.121, 1527.894 84.980, 1528.476 84.039 C 1529.043 83.121, 1528.682 82.966, 1527.125 83.460 C 1525.956 83.831, 1525 83.737, 1525 83.251 C 1525 82.765, 1521.963 81.789, 1518.250 81.083 C 1514.537 80.377, 1502.275 77.417, 1491 74.504 C 1479.725 71.592, 1466.971 68.395, 1462.658 67.400 C 1456.982 66.090, 1455.324 65.378, 1456.658 64.819 C 1457.722 64.373, 1456.964 64.286, 1454.865 64.613 C 1452.714 64.948, 1450.954 64.735, 1450.556 64.090 C 1450.185 63.490, 1448.671 62.999, 1447.191 62.997 C 1445.711 62.995, 1436.451 61.197, 1426.614 59.001 C 1322.924 35.850, 1184.923 17.401, 1086.500 13.531 C 1068.317 12.816, 1038.769 11.031, 1034.500 10.389 C 1027.612 9.353, 1025.849 9.213, 1012 8.599 C 985.066 7.406, 966.844 7.248, 932.495 7.907" stroke="none" fill="#6483e3" fill-rule="evenodd"/></svg>